HIERARCHY
ROOT Hips
{
	OFFSET 0.000000 71.427986 0.000000
	CHANNELS 6 Xposition Yposition Zposition Xrotation Yrotation Zrotation
	JOINT Pelvis
	{
		OFFSET 0.000000 0.000000 0.000000
		CHANNELS 3 Xrotation Yrotation Zrotation
		JOINT LeftUpLeg
		{
			OFFSET 6.797100 -2.508499 -1.318700
			CHANNELS 3 Xrotation Yrotation Zrotation
			JOINT LeftLeg
			{
				OFFSET 0.069008 -29.241863 0.690200
				CHANNELS 3 Xrotation Yrotation Zrotation
				JOINT LeftFoot
				{
					OFFSET -0.069008 -29.568123 -0.266800
					CHANNELS 3 Xrotation Yrotation Zrotation
					JOINT LeftToeBase
					{
						OFFSET 3.145500 -8.631000 16.059900
						CHANNELS 3 Xrotation Yrotation Zrotation
						End Site
						{
							OFFSET 0.000000 18.501587 0.000000
						}
					}
				}
			}
			JOINT Left_ShortSleeve
			{
				OFFSET 0.265923 -10.480953 1.153800
				CHANNELS 3 Xrotation Yrotation Zrotation
				End Site
				{
					OFFSET 1.725763 19.823879 0.000000
				}
			}
		}
		JOINT RightUpLeg
		{
			OFFSET -6.797100 -2.508499 -1.318700
			CHANNELS 3 Xrotation Yrotation Zrotation
			JOINT RightLeg
			{
				OFFSET -0.082453 -29.241932 0.688000
				CHANNELS 3 Xrotation Yrotation Zrotation
				JOINT RightFoot
				{
					OFFSET 0.082453 -29.568058 -0.264600
					CHANNELS 3 Xrotation Yrotation Zrotation
					JOINT RightToeBase
					{
						OFFSET -3.115300 -8.682800 16.113400
						CHANNELS 3 Xrotation Yrotation Zrotation
						End Site
						{
							OFFSET 0.000000 18.567114 0.000000
						}
					}
				}
			}
			JOINT Right_ShortSleeve
			{
				OFFSET -0.265923 -10.480953 1.153800
				CHANNELS 3 Xrotation Yrotation Zrotation
				End Site
				{
					OFFSET -1.725766 19.823910 0.000000
				}
			}
		}
	}
	JOINT Spine
	{
		OFFSET 0.000000 13.368103 0.470500
		CHANNELS 3 Xrotation Yrotation Zrotation
		JOINT Spine1
		{
			OFFSET 0.147000 13.837402 0.538800
			CHANNELS 3 Xrotation Yrotation Zrotation
			JOINT Spine2
			{
				OFFSET 0.168000 16.242897 -1.435500
				CHANNELS 3 Xrotation Yrotation Zrotation
				JOINT Neck
				{
					OFFSET 0.217200 18.631500 -1.679100
					CHANNELS 3 Xrotation Yrotation Zrotation
					JOINT Head
					{
						OFFSET 0.000000 6.599396 1.385900
						CHANNELS 3 Xrotation Yrotation Zrotation
						JOINT Hat
						{
							OFFSET -0.532200 27.220596 -10.096100
							CHANNELS 3 Xrotation Yrotation Zrotation
							End Site
							{
								OFFSET 0.000000 22.029861 0.000000
							}
						}
						JOINT HairD
						{
							OFFSET -10.777400 17.437393 -1.325900
							CHANNELS 3 Xrotation Yrotation Zrotation
							JOINT HairD1
							{
								OFFSET -3.290299 -11.051193 1.062200
								CHANNELS 3 Xrotation Yrotation Zrotation
								End Site
								{
									OFFSET 0.000000 11.579437 0.000000
								}
							}
						}
						JOINT HairB
						{
							OFFSET -10.777400 17.437393 1.467900
							CHANNELS 3 Xrotation Yrotation Zrotation
							JOINT HairB1
							{
								OFFSET -1.561200 -12.956299 3.590200
								CHANNELS 3 Xrotation Yrotation Zrotation
								End Site
								{
									OFFSET 0.000000 13.534866 0.000000
								}
							}
						}
						JOINT HairA
						{
							OFFSET 9.713100 17.437393 1.467900
							CHANNELS 3 Xrotation Yrotation Zrotation
							JOINT HairA1
							{
								OFFSET 1.561200 -12.956299 3.590200
								CHANNELS 3 Xrotation Yrotation Zrotation
								End Site
								{
									OFFSET 0.000000 13.534866 0.000000
								}
							}
						}
						JOINT HairC
						{
							OFFSET 9.713100 17.437393 -1.325900
							CHANNELS 3 Xrotation Yrotation Zrotation
							JOINT HairC1
							{
								OFFSET 3.290300 -11.051193 1.062200
								CHANNELS 3 Xrotation Yrotation Zrotation
								End Site
								{
									OFFSET 0.000000 11.579437 0.000000
								}
							}
						}
					}
				}
				JOINT LeftShoulder
				{
					OFFSET 5.101800 15.108002 -2.763700
					CHANNELS 3 Xrotation Yrotation Zrotation
					JOINT LeftArm
					{
						OFFSET 9.825497 2.506317 -1.597400
						CHANNELS 3 Xrotation Yrotation Zrotation
						JOINT LeftForeArm
						{
							OFFSET 21.966244 0.000000 0.000000
							CHANNELS 3 Xrotation Yrotation Zrotation
							JOINT LeftHand
							{
								OFFSET 33.879036 0.000000 0.000000
								CHANNELS 3 Xrotation Yrotation Zrotation
								JOINT LeftHandThumb1
								{
									OFFSET 6.715286 -2.359680 3.363841
									CHANNELS 3 Xrotation Yrotation Zrotation
									JOINT LeftHandThumb2
									{
										OFFSET 2.507072 -1.447464 1.447461
										CHANNELS 3 Xrotation Yrotation Zrotation
										JOINT LeftHandThumb3
										{
											OFFSET 2.898338 -1.673355 1.673357
											CHANNELS 3 Xrotation Yrotation Zrotation
											End Site
											{
												OFFSET -0.295959 3.727692 -0.131651
											}
										}
									}
								}
								JOINT LeftHandIndex1
								{
									OFFSET 14.190811 -0.254547 3.840278
									CHANNELS 3 Xrotation Yrotation Zrotation
									JOINT LeftHandIndex2
									{
										OFFSET 3.551727 0.000000 -0.000000
										CHANNELS 3 Xrotation Yrotation Zrotation
										JOINT LeftHandIndex3
										{
											OFFSET 2.894196 0.000000 0.000000
											CHANNELS 3 Xrotation Yrotation Zrotation
											End Site
											{
												OFFSET -1.000603 2.690872 0.366626
											}
										}
									}
								}
								JOINT LeftHandMiddle1
								{
									OFFSET 13.776489 0.000000 0.000000
									CHANNELS 3 Xrotation Yrotation Zrotation
									JOINT LeftHandMiddle2
									{
										OFFSET 3.438232 0.000000 0.000000
										CHANNELS 3 Xrotation Yrotation Zrotation
										JOINT LeftHandMiddle3
										{
											OFFSET 3.691551 0.000000 0.000000
											CHANNELS 3 Xrotation Yrotation Zrotation
											End Site
											{
												OFFSET -1.082298 3.499527 0.457670
											}
										}
									}
								}
								JOINT LeftHandRing1
								{
									OFFSET 13.966164 -0.268127 -3.067488
									CHANNELS 3 Xrotation Yrotation Zrotation
									JOINT LeftHandRing2
									{
										OFFSET 3.162567 0.000000 0.000000
										CHANNELS 3 Xrotation Yrotation Zrotation
										JOINT LeftHandRing3
										{
											OFFSET 3.324348 0.000000 0.000000
											CHANNELS 3 Xrotation Yrotation Zrotation
											End Site
											{
												OFFSET -0.861900 3.184998 0.405154
											}
										}
									}
								}
								JOINT LeftHandPinky1
								{
									OFFSET 13.131393 -0.168503 -5.746925
									CHANNELS 3 Xrotation Yrotation Zrotation
									JOINT LeftHandPinky2
									{
										OFFSET 2.849182 0.000000 0.000000
										CHANNELS 3 Xrotation Yrotation Zrotation
										JOINT LeftHandPinky3
										{
											OFFSET 2.805038 0.000000 0.000000
											CHANNELS 3 Xrotation Yrotation Zrotation
											End Site
											{
												OFFSET -0.882500 2.642609 0.325652
											}
										}
									}
								}
							}
							JOINT Left_Sleeve
							{
								OFFSET 6.592125 -0.646545 0.805568
								CHANNELS 3 Xrotation Yrotation Zrotation
								End Site
								{
									OFFSET -0.000179 20.275787 -0.000000
								}
							}
						}
					}
				}
				JOINT RightShoulder
				{
					OFFSET -5.731700 15.108002 -2.763700
					CHANNELS 3 Xrotation Yrotation Zrotation
					JOINT RightArm
					{
						OFFSET -9.825497 2.506317 -1.597400
						CHANNELS 3 Xrotation Yrotation Zrotation
						JOINT RightForeArm
						{
							OFFSET -21.966242 0.000000 0.000000
							CHANNELS 3 Xrotation Yrotation Zrotation
							JOINT RightHand
							{
								OFFSET -33.879032 0.000000 0.000000
								CHANNELS 3 Xrotation Yrotation Zrotation
								JOINT RightHandThumb1
								{
									OFFSET -6.715286 -2.359680 3.363841
									CHANNELS 3 Xrotation Yrotation Zrotation
									JOINT RightHandThumb2
									{
										OFFSET -2.507072 -1.447464 1.447461
										CHANNELS 3 Xrotation Yrotation Zrotation
										JOINT RightHandThumb3
										{
											OFFSET -2.898338 -1.673355 1.673357
											CHANNELS 3 Xrotation Yrotation Zrotation
											End Site
											{
												OFFSET 0.295959 3.727692 -0.131651
											}
										}
									}
								}
								JOINT RightHandIndex1
								{
									OFFSET -14.190811 -0.254547 3.840278
									CHANNELS 3 Xrotation Yrotation Zrotation
									JOINT RightHandIndex2
									{
										OFFSET -3.551727 0.000000 -0.000000
										CHANNELS 3 Xrotation Yrotation Zrotation
										JOINT RightHandIndex3
										{
											OFFSET -2.894196 0.000000 0.000000
											CHANNELS 3 Xrotation Yrotation Zrotation
											End Site
											{
												OFFSET 1.000603 2.690872 0.366626
											}
										}
									}
								}
								JOINT RightHandMiddle1
								{
									OFFSET -13.776489 0.000000 0.000000
									CHANNELS 3 Xrotation Yrotation Zrotation
									JOINT RightHandMiddle2
									{
										OFFSET -3.438232 0.000000 0.000000
										CHANNELS 3 Xrotation Yrotation Zrotation
										JOINT RightHandMiddle3
										{
											OFFSET -3.691551 0.000000 0.000000
											CHANNELS 3 Xrotation Yrotation Zrotation
											End Site
											{
												OFFSET 1.082298 3.499527 0.457670
											}
										}
									}
								}
								JOINT RightHandRing1
								{
									OFFSET -13.966164 -0.268127 -3.067488
									CHANNELS 3 Xrotation Yrotation Zrotation
									JOINT RightHandRing2
									{
										OFFSET -3.162567 0.000000 0.000000
										CHANNELS 3 Xrotation Yrotation Zrotation
										JOINT RightHandRing3
										{
											OFFSET -3.324348 0.000000 0.000000
											CHANNELS 3 Xrotation Yrotation Zrotation
											End Site
											{
												OFFSET 0.861900 3.184998 0.405154
											}
										}
									}
								}
								JOINT RightHandPinky1
								{
									OFFSET -13.131393 -0.168503 -5.746925
									CHANNELS 3 Xrotation Yrotation Zrotation
									JOINT RightHandPinky2
									{
										OFFSET -2.849182 0.000000 0.000000
										CHANNELS 3 Xrotation Yrotation Zrotation
										JOINT RightHandPinky3
										{
											OFFSET -2.805038 0.000000 0.000000
											CHANNELS 3 Xrotation Yrotation Zrotation
											End Site
											{
												OFFSET 0.882500 2.642609 0.325652
											}
										}
									}
								}
							}
							JOINT Right_Sleeve
							{
								OFFSET -6.592125 -0.646545 0.805568
								CHANNELS 3 Xrotation Yrotation Zrotation
								End Site
								{
									OFFSET 0.000179 20.275787 -0.000000
								}
							}
						}
					}
				}
				JOINT Bind_Right_JacketString
				{
					OFFSET -3.534800 11.969597 7.200700
					CHANNELS 3 Xrotation Yrotation Zrotation
					JOINT Bind_Right_JacketString1
					{
						OFFSET -0.319900 -6.102600 2.794100
						CHANNELS 3 Xrotation Yrotation Zrotation
						End Site
						{
							OFFSET 0.000000 6.719452 0.000000
						}
					}
				}
				JOINT Bind_Left_JacketString
				{
					OFFSET 2.904800 11.969597 7.200700
					CHANNELS 3 Xrotation Yrotation Zrotation
					JOINT Bind_Left_JacketString1
					{
						OFFSET 0.364800 -5.904503 3.186800
						CHANNELS 3 Xrotation Yrotation Zrotation
						End Site
						{
							OFFSET 0.000000 6.719513 0.000000
						}
					}
				}
				JOINT HairE
				{
					OFFSET 5.915200 17.612701 -11.592200
					CHANNELS 3 Xrotation Yrotation Zrotation
					JOINT HairE1
					{
						OFFSET 0.289200 -7.171898 -1.284500
						CHANNELS 3 Xrotation Yrotation Zrotation
						End Site
						{
							OFFSET 0.000000 7.291756 0.000000
						}
					}
				}
				JOINT HairF
				{
					OFFSET -0.864800 17.612701 -11.592200
					CHANNELS 3 Xrotation Yrotation Zrotation
					JOINT HairF1
					{
						OFFSET 0.000000 -14.087097 -2.127501
						CHANNELS 3 Xrotation Yrotation Zrotation
						End Site
						{
							OFFSET 0.000000 14.246841 0.000000
						}
					}
				}
				JOINT HairG
				{
					OFFSET -8.087700 17.612701 -11.592200
					CHANNELS 3 Xrotation Yrotation Zrotation
					JOINT HairG1
					{
						OFFSET -0.293600 -6.081398 -0.910100
						CHANNELS 3 Xrotation Yrotation Zrotation
						End Site
						{
							OFFSET 0.000000 6.156120 0.000000
						}
					}
				}
			}
		}
	}
	JOINT Pouch
	{
		OFFSET 0.000000 4.394501 10.847300
		CHANNELS 3 Xrotation Yrotation Zrotation
		End Site
		{
			OFFSET 0.000000 21.880577 0.000000
		}
	}
	JOINT Bag
	{
		OFFSET -13.229000 4.813004 -0.593300
		CHANNELS 3 Xrotation Yrotation Zrotation
		End Site
		{
			OFFSET 0.000000 21.880577 0.000000
		}
	}
	JOINT OccupyGuyFacialAnim_Joint
	{
		OFFSET 1.000000 -70.206398 -1.655000
		CHANNELS 3 Xrotation Yrotation Zrotation
		End Site
		{
			OFFSET 0.000000 21.880577 0.000000
		}
	}
}
MOTION
Frames: 4
Frame Time: 0.033333
1.538283 64.935387 81.571716 23.517219 -68.472462 19.407194 0.000000 -0.000001 -0.000000 -16.631700 19.804646 -11.376285 48.724971 -8.432792 -3.189075 -26.708727 -12.613450 4.321392 0.000000 -0.000000 -0.000001 0.000001 0.000001 -0.000001 -35.955895 -10.130480 18.572097 27.611993 6.882914 -0.327290 6.737819 4.129264 -14.778081 -0.000000 0.000001 -0.000000 0.000000 0.000001 0.000002 15.331126 -6.951757 5.367857 3.754780 -1.996061 0.353781 3.733470 -2.060137 0.363387 -9.760114 54.577518 -6.418732 6.216848 8.663082 -9.873038 0.000001 0.000001 -0.000001 0.000001 0.000001 -0.000001 0.000001 0.000001 -0.000001 0.000001 0.000001 -0.000001 -0.000000 0.000001 -0.000000 0.000001 0.000001 -0.000001 -0.000000 0.000001 -0.000000 0.000001 0.000001 -0.000001 0.000001 0.000001 -0.000001 6.352365 -0.131683 9.196242 -62.006322 -4.146036 -11.315959 0.197401 -13.020530 -0.235541 -30.250238 -0.314976 2.640539 40.109880 -15.297109 -0.360545 5.639898 28.097742 11.338803 0.000000 -0.000000 0.000001 6.882256 2.840024 -61.140554 8.247931 7.639983 -89.897809 -0.000000 0.000001 -0.000000 -2.345587 4.688875 -62.655320 8.754073 9.897065 -87.051184 0.000005 -0.000001 -0.000001 -9.042510 10.045615 -60.766240 8.523952 9.508860 -66.892824 0.000000 0.000000 -0.000001 -17.946903 14.755020 -51.485901 8.868464 8.667067 -84.812064 -0.000000 -0.000002 -0.000001 0.000004 -0.000001 -0.000000 0.191645 3.505628 -19.556563 -57.154350 40.831673 46.554966 1.795229 134.285713 -0.288458 -65.844157 -21.022784 -25.374107 0.277522 -1.521452 -1.570584 7.168998 -41.689668 -15.773536 -0.000000 -0.000001 -0.000003 6.412842 -12.738391 14.389475 9.941722 -7.465168 101.743277 -0.000000 -0.000001 0.000000 2.653165 -11.302304 44.730909 9.916090 -9.880683 94.351209 0.000001 0.000001 -0.000001 2.140181 -7.454435 61.764991 9.609274 -8.992468 89.388687 -0.000001 -0.000001 0.000002 -4.886694 -23.798109 68.396114 13.518251 -7.949294 112.864908 0.000001 0.000002 0.000001 -0.000002 0.000001 -0.000001 -0.000000 -0.000000 0.000001 0.000002 0.000000 0.000000 -0.000000 -0.000000 0.000001 -0.000000 -0.000000 0.000001 -0.000000 -0.000000 0.000001 0.000002 0.000000 0.000000 -0.000000 -0.000000 0.000001 -0.000000 -0.000000 0.000001 -0.000000 -0.000000 0.000001 0.000002 0.000000 0.000000 0.000000 -0.000001 -0.000000 0.000000 -0.000001 -0.000000 0.000000 -0.000001 -0.000000 
1.337942 64.890480 83.814316 23.687764 -68.236534 18.892006 -0.000000 -0.000000 -0.000000 -25.212607 19.414410 -5.254218 60.351190 -12.858401 -3.622209 -22.930934 -15.160681 -13.217476 0.000000 0.000000 -0.000000 -0.000003 -0.000003 -0.000000 -37.732267 -9.288336 17.465805 31.788541 5.390647 -0.469013 3.442576 4.592366 -14.474279 -0.000000 -0.000003 -0.000000 0.000001 -0.000001 -0.000001 15.576837 -6.302884 5.487883 3.375945 -1.934945 0.404016 3.357884 -1.995795 0.427338 -9.739438 54.425024 -6.300188 6.000892 8.215997 -9.173102 -0.000000 0.000001 0.000000 -0.000000 0.000001 0.000000 -0.000000 0.000001 0.000001 -0.000000 0.000001 0.000000 -0.000002 0.000001 0.000001 -0.000000 0.000001 0.000000 -0.000002 0.000001 0.000001 -0.000000 0.000001 0.000000 -0.000000 0.000001 0.000000 6.155352 -0.595225 9.457173 -61.433228 -4.650856 -11.326684 -0.196333 -12.944368 -0.346612 -29.892087 -0.406329 2.727613 40.109876 -15.297110 -0.360543 5.639897 28.097739 11.338803 0.000000 -0.000000 0.000002 6.882259 2.840018 -61.140561 8.247932 7.639986 -89.897809 0.000000 0.000003 0.000002 -2.345584 4.688877 -62.655320 8.754074 9.897064 -87.051191 0.000006 0.000003 -0.000001 -9.042506 10.045617 -60.766240 8.523953 9.508855 -66.892824 -0.000002 0.000000 0.000000 -17.946904 14.755020 -51.485904 8.868461 8.667071 -84.812071 -0.000000 0.000000 -0.000001 0.000002 0.000000 -0.000000 -0.038914 3.097837 -19.439504 -56.385684 40.727038 46.748123 1.557725 134.772965 -0.166686 -65.907699 -21.090588 -26.001579 0.277522 -1.521455 -1.570585 7.168996 -41.689665 -15.773545 -0.000003 0.000000 -0.000001 6.412840 -12.738392 14.389477 9.941720 -7.465171 101.743283 -0.000001 -0.000000 -0.000002 2.653164 -11.302305 44.730909 9.916090 -9.880681 94.351209 -0.000000 0.000001 -0.000002 2.140180 -7.454433 61.764991 9.609270 -8.992467 89.388687 0.000002 -0.000003 0.000008 -4.886693 -23.798107 68.396114 13.518251 -7.949293 112.864915 0.000001 0.000003 -0.000001 0.000000 0.000003 0.000001 0.000000 0.000000 0.000000 0.000000 0.000000 0.000000 0.000000 0.000000 0.000000 0.000000 0.000000 0.000000 0.000000 0.000000 0.000000 0.000000 0.000000 0.000000 0.000000 0.000000 0.000000 0.000000 0.000000 0.000000 0.000000 0.000000 0.000000 0.000000 0.000000 0.000000 -0.000000 -0.000000 -0.000000 -0.000000 -0.000000 -0.000000 -0.000000 -0.000000 -0.000000 
1.124115 65.134453 86.105164 23.867811 -67.986610 18.887508 -0.000000 -0.000002 0.000000 -31.105569 18.788790 -1.562232 67.190886 -13.030790 -3.679180 -18.054145 -14.831720 -15.054813 -0.000000 0.000000 -0.000001 0.000000 0.000000 0.000000 -38.695805 -7.864819 15.915353 34.534553 4.402965 -0.597746 0.325460 4.224465 -12.745316 -0.000000 -0.000001 -0.000000 0.000000 0.000001 -0.000003 15.464988 -5.841587 4.889665 3.129423 -1.859410 0.537235 3.118373 -1.907340 0.565293 -9.796792 54.247094 -6.079247 5.784658 7.670645 -8.436242 0.000003 0.000001 -0.000000 0.000003 0.000001 -0.000000 0.000003 0.000001 0.000000 0.000003 0.000001 -0.000000 0.000001 -0.000001 0.000000 0.000003 0.000001 -0.000000 0.000001 -0.000001 0.000000 0.000003 0.000001 -0.000000 0.000003 0.000001 -0.000000 5.952769 -1.081384 9.725263 -60.830546 -5.174749 -11.285880 -2.057795 -12.839501 -0.865003 -28.099543 -0.519297 2.848189 40.109883 -15.297109 -0.360544 5.639899 28.097742 11.338802 -0.000000 -0.000001 -0.000001 6.882258 2.840023 -61.140561 8.247931 7.639982 -89.897809 -0.000001 0.000002 0.000000 -2.345585 4.688875 -62.655320 8.754072 9.897065 -87.051184 0.000002 -0.000001 -0.000001 -9.042505 10.045615 -60.766240 8.523951 9.508853 -66.892817 -0.000004 -0.000000 -0.000002 -17.946899 14.755020 -51.485901 8.868468 8.667070 -84.812078 0.000002 0.000001 -0.000000 -0.000002 -0.000001 0.000000 -0.426572 2.814096 -19.231933 -55.408496 40.617158 46.860152 1.325411 135.273563 -0.016805 -66.053141 -21.172120 -26.684946 0.277525 -1.521453 -1.570584 7.168996 -41.689668 -15.773538 -0.000002 -0.000002 -0.000002 6.412844 -12.738391 14.389474 9.941727 -7.465171 101.743277 -0.000001 -0.000000 0.000002 2.653166 -11.302304 44.730912 9.916090 -9.880681 94.351209 0.000002 -0.000002 -0.000001 2.140183 -7.454434 61.764991 9.609272 -8.992470 89.388687 -0.000000 -0.000001 -0.000000 -4.886693 -23.798111 68.396114 13.518251 -7.949295 112.864908 0.000002 -0.000001 0.000000 -0.000000 -0.000003 0.000001 -0.000000 0.000000 0.000000 -0.000000 0.000000 0.000000 -0.000000 0.000000 0.000001 -0.000000 0.000000 0.000001 -0.000000 0.000000 0.000000 -0.000000 0.000000 -0.000000 -0.000000 0.000000 0.000001 -0.000000 0.000000 0.000001 -0.000000 0.000000 0.000000 -0.000000 0.000000 -0.000000 -0.000000 -0.000002 0.000000 -0.000000 -0.000002 0.000000 -0.000000 -0.000002 0.000000 
0.890193 65.640587 88.345734 24.009411 -67.686710 19.231417 -0.000000 0.000000 0.000000 -36.820477 18.262237 1.274808 74.332764 -10.455240 -3.646515 -13.585732 -7.102589 -7.713088 0.000003 0.000001 0.000000 -0.000003 0.000000 -0.000001 -38.504423 -6.000181 14.298545 35.243100 3.097141 -0.728155 -1.956720 3.316513 -11.022478 0.000000 -0.000002 0.000000 -0.000001 0.000004 -0.000000 14.972796 -5.561955 3.930010 3.048787 -1.792888 0.637527 3.042670 -1.827457 0.663855 -9.916450 54.055490 -5.783550 5.600791 7.082324 -7.703215 -0.000001 0.000001 -0.000001 -0.000001 0.000001 -0.000001 -0.000001 0.000001 -0.000001 -0.000001 0.000001 -0.000001 -0.000001 -0.000001 -0.000001 -0.000001 0.000001 -0.000001 -0.000001 -0.000001 -0.000001 -0.000001 0.000001 -0.000001 -0.000001 0.000001 -0.000001 5.764100 -1.543221 9.974802 -60.202858 -5.753937 -11.311589 -1.158865 -12.753709 -0.609965 -29.006126 -0.601922 2.899331 40.109880 -15.297110 -0.360545 5.639897 28.097740 11.338805 -0.000001 -0.000000 0.000000 6.882265 2.840023 -61.140554 8.247932 7.639982 -89.897809 0.000004 0.000003 0.000002 -2.345587 4.688875 -62.655327 8.754074 9.897065 -87.051191 0.000001 0.000000 -0.000003 -9.042508 10.045614 -60.766246 8.523955 9.508854 -66.892824 0.000001 0.000001 -0.000001 -17.946901 14.755022 -51.485904 8.868466 8.667070 -84.812071 0.000001 -0.000000 0.000001 0.000001 0.000000 0.000000 -0.908152 2.611879 -18.928338 -54.288440 40.577823 46.899863 1.104192 135.761075 0.118553 -66.208883 -21.260262 -27.401945 0.277521 -1.521453 -1.570585 7.169000 -41.689668 -15.773538 -0.000001 0.000001 0.000001 6.412843 -12.738390 14.389477 9.941722 -7.465171 101.743277 -0.000000 0.000002 -0.000001 2.653166 -11.302304 44.730909 9.916089 -9.880685 94.351202 -0.000001 -0.000001 0.000003 2.140181 -7.454436 61.764998 9.609274 -8.992469 89.388687 -0.000001 0.000000 -0.000004 -4.886690 -23.798109 68.396114 13.518253 -7.949295 112.864915 0.000001 -0.000001 -0.000003 -0.000002 0.000003 -0.000001 0.000000 -0.000001 0.000000 0.000000 -0.000000 -0.000000 0.000000 -0.000001 0.000000 0.000000 -0.000001 0.000000 0.000000 -0.000001 0.000000 0.000000 -0.000000 -0.000001 0.000000 -0.000001 0.000000 0.000000 -0.000001 0.000000 0.000000 -0.000001 0.000000 0.000000 -0.000000 -0.000001 -0.000000 0.000000 0.000000 -0.000000 0.000000 0.000000 -0.000000 0.000000 0.000000 
